<svg width="271" height="116" viewBox="0 0 271 116" fill="none" xmlns="http://www.w3.org/2000/svg">
<path d="M125.346 85.4999V49.0967H136.79L137.174 52.3223C138.812 51.1447 140.655 50.1975 142.703 49.4807C144.751 48.7127 146.953 48.3287 149.308 48.3287C151.766 48.3287 153.686 48.7127 155.068 49.4807C156.45 50.1975 157.526 51.2215 158.294 52.5527C159.983 51.3239 161.878 50.3255 163.977 49.5575C166.127 48.7383 168.636 48.3287 171.503 48.3287C175.753 48.3287 178.876 49.4295 180.873 51.6311C182.87 53.8327 183.868 57.1863 183.868 61.6919V85.4999H171.657V63.1511C171.657 61.1543 171.222 59.7207 170.351 58.8503C169.532 57.9287 168.175 57.4679 166.281 57.4679C165.103 57.4679 163.951 57.7239 162.825 58.2359C161.698 58.6967 160.751 59.3623 159.983 60.2327C160.086 60.7959 160.137 61.3335 160.137 61.8455C160.188 62.3575 160.214 62.9719 160.214 63.6887V85.4999H148.694V62.9975C148.694 61.1543 148.361 59.7719 147.695 58.8503C147.081 57.9287 145.878 57.4679 144.086 57.4679C142.806 57.4679 141.602 57.8007 140.476 58.4663C139.35 59.1319 138.326 59.8999 137.404 60.7703V85.4999H125.346ZM208.1 86.2679C201.751 86.2679 196.656 84.7063 192.816 81.5831C188.976 78.4087 187.056 73.6471 187.056 67.2983C187.056 61.5127 188.644 56.9047 191.818 53.4743C194.992 50.0439 199.754 48.3287 206.103 48.3287C211.888 48.3287 216.368 49.8135 219.543 52.7831C222.717 55.7527 224.304 59.7463 224.304 64.7639V71.2919H198.5C199.063 73.6983 200.368 75.3879 202.416 76.3607C204.516 77.2823 207.357 77.7431 210.941 77.7431C212.938 77.7431 214.96 77.5639 217.008 77.2055C219.108 76.8471 220.848 76.3863 222.231 75.8231V83.8871C220.49 84.7063 218.416 85.2951 216.01 85.6535C213.604 86.0631 210.967 86.2679 208.1 86.2679ZM198.5 64.1495H213.552V62.5367C213.552 60.7447 213.015 59.3367 211.94 58.3127C210.864 57.2375 209.047 56.6999 206.487 56.6999C203.517 56.6999 201.444 57.3143 200.266 58.5431C199.088 59.7207 198.5 61.5895 198.5 64.1495ZM247.258 86.2679C240.244 86.2679 235.072 84.6551 231.744 81.4295C228.416 78.1527 226.752 73.4423 226.752 67.2983C226.752 61.2055 228.416 56.5207 231.744 53.2439C235.124 49.9671 240.295 48.3287 247.258 48.3287C254.272 48.3287 259.444 49.9671 262.772 53.2439C266.151 56.5207 267.84 61.2055 267.84 67.2983C267.84 73.4423 266.176 78.1527 262.848 81.4295C259.52 84.6551 254.324 86.2679 247.258 86.2679ZM247.258 76.5911C250.125 76.5911 252.173 75.8743 253.402 74.4407C254.631 73.0071 255.245 70.6263 255.245 67.2983C255.245 63.9703 254.631 61.5895 253.402 60.1559C252.173 58.7223 250.125 58.0055 247.258 58.0055C244.442 58.0055 242.42 58.7223 241.191 60.1559C239.962 61.5895 239.348 63.9703 239.348 67.2983C239.348 70.6263 239.962 73.0071 241.191 74.4407C242.42 75.8743 244.442 76.5911 247.258 76.5911Z" fill="white"/>
<path d="M4.74639 85.4999V49.0967H16.2664L16.6504 52.2455C18.1352 51.2215 20.004 50.3255 22.2568 49.5575C24.5096 48.7383 26.916 48.3287 29.476 48.3287C34.1864 48.3287 37.6168 49.4551 39.7672 51.7079C41.9176 53.9607 42.9928 57.4423 42.9928 62.1527V85.4999H30.628V63.1511C30.628 61.1031 30.1928 59.6439 29.3224 58.7735C28.452 57.9031 26.8904 57.4679 24.6376 57.4679C23.3064 57.4679 21.9496 57.7751 20.5672 58.3895C19.1848 59.0039 18.0328 59.7719 17.1112 60.6935V85.4999H4.74639Z" fill="white"/>
<path d="M67.2903 85.0926C60.1544 85.0926 54.8937 84.0675 51.508 80.8027C48.1224 77.4861 46.4296 72.7185 46.4296 66.4999C46.4296 60.3331 48.1224 55.5914 51.508 52.2748C54.9457 48.9582 60.2065 47.9072 67.2903 47.9072C74.4262 47.9072 79.6869 48.9582 83.0726 52.2748C86.5103 55.5914 88.2291 60.3331 88.2291 66.4999C88.2291 72.7185 86.5363 77.4861 83.1507 80.8027C79.7651 84.0675 74.4783 85.0926 67.2903 85.0926ZM67.2903 75.9056C70.2071 75.9056 72.2906 75.1801 73.5407 73.7291C74.7908 72.278 75.4158 69.8683 75.4158 66.4999C75.4158 63.1315 74.7908 60.7218 73.5407 59.2708C72.2906 57.8197 70.2071 57.0942 67.2903 57.0942C64.4255 57.0942 62.3681 57.8197 61.118 59.2708C59.8679 60.7218 59.2429 63.1315 59.2429 66.4999C59.2429 69.8683 59.8679 72.278 61.118 73.7291C62.3681 75.1801 64.4255 75.9056 67.2903 75.9056Z" fill="white"/>
<path d="M101.091 85.0999C93.9548 85.0999 88.6941 84.0675 85.3084 80.8027C81.9228 77.4861 80.23 72.7185 80.23 66.4999C80.23 60.3331 81.9228 55.5914 85.3084 52.2748C88.7461 48.9582 94.0069 47.8999 101.091 47.8999C108.227 47.8999 113.487 48.9582 116.873 52.2748C120.311 55.5914 122.03 60.3331 122.03 66.4999C122.03 72.7185 120.337 77.4861 116.951 80.8027C113.565 84.0675 108.279 85.0999 101.091 85.0999ZM101.091 75.9056C104.008 75.9056 106.091 75.1801 107.341 73.7291C108.591 72.278 109.216 69.8683 109.216 66.4999C109.216 63.1315 108.591 60.7218 107.341 59.2708C106.091 57.8197 104.008 57.0942 101.091 57.0942C98.2259 57.0942 96.1685 57.8197 94.9184 59.2708C93.6683 60.7218 93.0433 63.1315 93.0433 66.4999C93.0433 69.8683 93.6683 72.278 94.9184 73.7291C96.1685 75.1801 98.2259 75.9056 101.091 75.9056Z" fill="white"/>
</svg>
